<svg xmlns="http://www.w3.org/2000/svg" version="1.1" xmlns:xlink="http://www.w3.org/1999/xlink" xmlns:svgjs="http://svgjs.dev/svgjs" width="2000" height="2250" viewBox="0 0 2000 2250"><g transform="matrix(1,0,0,1,0.00023124999972878868,0)"><svg viewBox="0 0 320 360" data-background-color="#fdf8f1" preserveAspectRatio="xMidYMid meet" height="2250" width="2000" xmlns="http://www.w3.org/2000/svg" xmlns:xlink="http://www.w3.org/1999/xlink"><g id="tight-bounds" transform="matrix(1,0,0,1,-0.0000369999999634274,0)"><svg viewBox="0 0 320 360" height="360" width="320"><g><svg></svg></g><g><svg viewBox="0 0 320 360" height="360" width="320"><g><path transform="translate(-29.57346,-9.38389) scale(3.79147,3.79147)" d="M50 13.6c19.1 0 34.8 14.8 36.3 33.5h5.9c-0.3-4.7-1.4-9.2-3.2-13.5-2.1-5-5.2-9.6-9.1-13.4-3.9-3.9-8.4-6.9-13.4-9.1-5.3-2.2-10.8-3.4-16.5-3.4-5.7 0-11.2 1.1-16.5 3.3-5 2.1-9.6 5.2-13.4 9.1-3.9 3.9-6.9 8.4-9.1 13.4-1.8 4.3-2.9 8.9-3.2 13.5h5.9c1.5-18.6 17.2-33.4 36.3-33.4zM50 86.4c-19.1 0-34.8-14.8-36.3-33.5h-5.9c0.3 4.7 1.4 9.2 3.2 13.5 2.1 5 5.2 9.6 9.1 13.4 3.9 3.9 8.4 6.9 13.4 9.1 5.2 2.2 10.7 3.3 16.5 3.3 5.8 0 11.2-1.1 16.5-3.3 5-2.1 9.6-5.2 13.4-9.1 3.9-3.9 6.9-8.4 9.1-13.4 1.8-4.3 2.9-8.9 3.2-13.5h-5.9c-1.5 18.7-17.2 33.5-36.3 33.5z" fill="#fa4238" fill-rule="nonzero" stroke="none" stroke-width="1" stroke-linecap="butt" stroke-linejoin="miter" stroke-miterlimit="10" stroke-dasharray="" stroke-dashoffset="0" font-family="none" font-weight="none" font-size="none" text-anchor="none" style="mix-blend-mode: normal" data-fill-palette-color="tertiary"></path></g><g transform="matrix(1,0,0,1,61.59909870708137,90)"><svg viewBox="0 0 196.80180258583727 180" height="180" width="196.80180258583727"><g><svg viewBox="0 0 196.80180258583727 180" height="180" width="196.80180258583727"><g><svg viewBox="0 0 208.00000000000003 190.24215991959798" height="180" width="196.80180258583727"><g transform="matrix(1,0,0,1,0,114.9858785125628)"><svg viewBox="0 0 208.00000000000003 75.25628140703517" height="75.25628140703517" width="208.00000000000003"><g id="textblocktransform"><svg viewBox="0 0 208.00000000000003 75.25628140703517" height="75.25628140703517" width="208.00000000000003" id="textblock"><g><svg viewBox="0 0 208.00000000000003 75.25628140703517" height="75.25628140703517" width="208.00000000000003"><g transform="matrix(1,0,0,1,0,0)"><svg width="208.00000000000003" viewBox="0.9 -35.5 99.49 36" height="75.25628140703517" data-palette-color="#fa4238"><path d="M5.85 0L5.85-1.5 24.25-1.5 13.65-30.65 2.5 0 0.9 0 13.65-35.05 26.4 0 5.85 0ZM36.55-0.05L36.55-1.5 56.25-1.5 56.25-31.45 45-7.35 33.75-31.5 33.75 0 32.25-0.05 32.25-35.05 33.75-35.05 45-10.9 56.25-35 57.75-35.05 57.75 0 36.55-0.05ZM70.75-35L70.75 0 69.25 0 69.25-29.55 66.59-20.4 65.05-20.4 69.25-35 70.75-35ZM97.82-4.38Q95.24 0.5 89.89 0.5 84.54 0.5 81.97-4.35 79.39-9.2 79.39-17.5 79.39-25.8 81.97-30.65 84.54-35.5 89.89-35.5 95.24-35.5 97.82-30.63 100.39-25.75 100.39-17.5 100.39-9.25 97.82-4.38ZM96.57-29.48Q94.24-34 89.89-34 85.54-34 83.22-29.5 80.89-25 80.89-17.5 80.89-10 83.22-5.5 85.54-1 89.89-1 94.24-1 96.57-5.53 98.89-10.05 98.89-17.5 98.89-24.95 96.57-29.48Z" opacity="1" transform="matrix(1,0,0,1,0,0)" fill="#fa4238" class="wordmark-text-0" data-fill-palette-color="primary" id="text-0"></path></svg></g></svg></g></svg></g></svg></g><g transform="matrix(1,0,0,1,58.70040120603016,0)"><svg viewBox="0 0 90.59919758793971 104.00418090452261" height="104.00418090452261" width="90.59919758793971"><g><svg xmlns="http://www.w3.org/2000/svg" xmlns:xlink="http://www.w3.org/1999/xlink" version="1.1" x="0" y="0" viewBox="10.1 5.2 78.4 90" enable-background="new 0 0 100 100" xml:space="preserve" height="104.00418090452261" width="90.59919758793971" class="icon-icon-0" data-fill-palette-color="accent" id="icon-0"><polygon fill-rule="evenodd" clip-rule="evenodd" fill="#fa4238" points="88.5,28.2 68.4,59.9 68.5,22.3 " data-fill-palette-color="accent"></polygon><polygon fill-rule="evenodd" clip-rule="evenodd" fill="#fa4238" points="49.8,5.2 67.2,38.5 34.7,19.6 " data-fill-palette-color="accent"></polygon><polygon fill-rule="evenodd" clip-rule="evenodd" fill="#fa4238" points="67.8,38.3 67.8,22.3 60.8,24.5 " data-fill-palette-color="accent"></polygon><polygon fill-rule="evenodd" clip-rule="evenodd" fill="#fa4238" points="88.2,73.2 50.6,71.7 83.2,52.9 " data-fill-palette-color="accent"></polygon><polygon fill-rule="evenodd" clip-rule="evenodd" fill="#fa4238" points="69.1,60.3 82.8,52.3 77.4,47.4 " data-fill-palette-color="accent"></polygon><polygon fill-rule="evenodd" clip-rule="evenodd" fill="#fa4238" points="48.7,95.2 31.5,61.9 63.9,80.9 " data-fill-palette-color="accent"></polygon><polygon fill-rule="evenodd" clip-rule="evenodd" fill="#fa4238" points="50.5,72.2 64.2,80.2 65.8,73.1 " data-fill-palette-color="accent"></polygon><polygon fill-rule="evenodd" clip-rule="evenodd" fill="#fa4238" points="10.1,72 30.5,40.4 30.1,78 " data-fill-palette-color="accent"></polygon><polygon fill-rule="evenodd" clip-rule="evenodd" fill="#fa4238" points="30.9,62.1 30.8,78 37.8,75.8 " data-fill-palette-color="accent"></polygon><polygon fill-rule="evenodd" clip-rule="evenodd" fill="#fa4238" points="11,27 48.5,28.9 15.8,47.3 " data-fill-palette-color="accent"></polygon><polygon fill-rule="evenodd" clip-rule="evenodd" fill="#fa4238" points="30,40.1 16.1,47.9 21.5,52.9 " data-fill-palette-color="accent"></polygon><polygon fill-rule="evenodd" clip-rule="evenodd" fill="#fa4238" points="48.2,28.3 34.5,20.2 32.9,27.4 " data-fill-palette-color="accent"></polygon></svg></g></svg></g><g></g></svg></g></svg></g></svg></g></svg></g><defs></defs></svg><rect width="320" height="360" fill="none" stroke="none" visibility="hidden"></rect></g></svg></g></svg>